HIERARCHY
ROOT Hips
{
	OFFSET 55.837601 -12.817714 84.013298
	CHANNELS 6 Xposition Yposition Zposition Xrotation Yrotation Zrotation
	JOINT spine
	{
		OFFSET 0.000000 -0.342408 5.954384
		CHANNELS 3 Xrotation Yrotation Zrotation
		JOINT spine1
		{
			OFFSET 0.000000 -0.000002 8.856018
			CHANNELS 3 Xrotation Yrotation Zrotation
			JOINT spine2
			{
				OFFSET 0.000000 -0.000001 8.485672
				CHANNELS 3 Xrotation Yrotation Zrotation
				JOINT Neck
				{
					OFFSET 0.000000 -1.038704 21.786301
					CHANNELS 3 Xrotation Yrotation Zrotation
					JOINT Head
					{
						OFFSET 0.000000 -0.000001 6.582199
						CHANNELS 3 Xrotation Yrotation Zrotation
						End Site
						{
							OFFSET 0.000000 5.254357 15.932602
						}
					}
				}
				JOINT RightShoulder
				{
					OFFSET -3.573071 0.497523 9.163864
					CHANNELS 3 Xrotation Yrotation Zrotation
					JOINT RightArm
					{
						OFFSET 0.000000 -0.000002 12.019196
						CHANNELS 3 Xrotation Yrotation Zrotation
						JOINT RightArmRoll
						{
							OFFSET 0.000000 -0.000001 6.067551
							CHANNELS 3 Xrotation Yrotation Zrotation
							JOINT RightForeArm
							{
								OFFSET 0.000000 -0.000003 17.672592
								CHANNELS 3 Xrotation Yrotation Zrotation
								JOINT RightForeArmRoll
								{
									OFFSET 0.000000 -0.000001 6.808716
									CHANNELS 3 Xrotation Yrotation Zrotation
									JOINT RightHand
									{
										OFFSET 0.000000 -0.000003 13.663605
										CHANNELS 3 Xrotation Yrotation Zrotation
										End Site
										{
											OFFSET 0.000000 0.000000 0.100006
										}
									}
								}
							}
						}
					}
				}
				JOINT LeftShoulder
				{
					OFFSET 3.573071 0.497523 9.163864
					CHANNELS 3 Xrotation Yrotation Zrotation
					JOINT LeftArm
					{
						OFFSET 0.000000 -0.000002 12.019196
						CHANNELS 3 Xrotation Yrotation Zrotation
						JOINT LeftArmRoll
						{
							OFFSET 0.000000 -0.000001 6.067551
							CHANNELS 3 Xrotation Yrotation Zrotation
							JOINT LeftForeArm
							{
								OFFSET 0.000000 -0.000003 17.672592
								CHANNELS 3 Xrotation Yrotation Zrotation
								JOINT LeftForeArmRoll
								{
									OFFSET 0.000000 -0.000001 6.808716
									CHANNELS 3 Xrotation Yrotation Zrotation
									JOINT LeftHand
									{
										OFFSET 0.000000 -0.000003 13.663605
										CHANNELS 3 Xrotation Yrotation Zrotation
										End Site
										{
											OFFSET 0.000000 0.000000 0.100006
										}
									}
								}
							}
						}
					}
				}
			}
		}
	}
	JOINT RightUpLeg
	{
		OFFSET -5.277740 0.811858 -0.967796
		CHANNELS 3 Xrotation Yrotation Zrotation
		JOINT RightUpLegRoll
		{
			OFFSET 0.000000 -0.000003 16.021400
			CHANNELS 3 Xrotation Yrotation Zrotation
			JOINT RightLeg
			{
				OFFSET 0.000000 0.000003 -19.840096
				CHANNELS 3 Xrotation Yrotation Zrotation
				JOINT RightLegRoll
				{
					OFFSET 0.000000 -0.000003 19.904999
					CHANNELS 3 Xrotation Yrotation Zrotation
					JOINT RightFoot
					{
						OFFSET 0.000000 -0.000003 16.567497
						CHANNELS 3 Xrotation Yrotation Zrotation
						JOINT RightToeBase
						{
							OFFSET 0.000000 -0.000002 13.849602
							CHANNELS 3 Xrotation Yrotation Zrotation
							End Site
							{
								OFFSET 0.005871 0.773116 6.707275
							}
						}
					}
				}
			}
		}
	}
	JOINT LeftUpLeg
	{
		OFFSET 5.277740 0.811858 -0.967796
		CHANNELS 3 Xrotation Yrotation Zrotation
		JOINT LeftUpLegRoll
		{
			OFFSET 0.000000 -0.000003 16.021500
			CHANNELS 3 Xrotation Yrotation Zrotation
			JOINT LeftLeg
			{
				OFFSET 0.000000 -0.000003 19.839996
				CHANNELS 3 Xrotation Yrotation Zrotation
				JOINT LeftLegRoll
				{
					OFFSET 0.000000 -0.000004 20.089005
					CHANNELS 3 Xrotation Yrotation Zrotation
					JOINT LeftFoot
					{
						OFFSET 0.000000 -0.000003 16.383499
						CHANNELS 3 Xrotation Yrotation Zrotation
						JOINT LeftToeBase
						{
							OFFSET 0.000000 -0.000002 13.849594
							CHANNELS 3 Xrotation Yrotation Zrotation
							End Site
							{
								OFFSET -0.026310 0.773116 6.707275
							}
						}
					}
				}
			}
		}
	}
}
MOTION
Frames: 4
Frame Time: 0.041667
52.889202 -12.319208 77.832695 5.066436 1.660844 8.037554 0.256233 -0.570998 0.126572 4.516704 -1.139840 0.261354 6.161875 -1.136627 0.274785 -7.907424 25.764481 -6.677856 -8.249157 -27.262328 -14.232604 -8.915398 -40.233543 -9.101813 -14.864708 -139.712476 -47.433618 0.000001 -0.000021 0.000005 -0.030855 3.646650 -1.990986 0.000001 -0.000024 -3.011611 -5.000142 -7.999928 0.000016 -13.997732 66.084430 16.713306 -32.965485 124.813702 47.617726 0.000001 0.000000 0.000000 -0.027474 -3.641890 1.990865 -0.000002 0.000000 3.011600 -5.000181 7.999918 -0.000004 -27.689503 -184.554908 -1.317116 -179.999991 0.000005 -1.368996 132.586075 2.597918 -0.907661 -0.000003 0.000000 1.636220 81.350169 6.530283 2.300804 33.779274 -7.273638 1.098395 -29.865818 -176.776388 4.455276 -0.000003 -0.000004 -1.445280 -50.697253 -4.148651 0.057835 0.000001 0.000001 -1.920849 80.071073 -6.435037 -2.746258 33.338532 6.984169 -3.209158 
53.050400 -11.966310 77.639511 5.149905 1.802952 8.077847 0.300700 -0.621838 0.129903 4.605883 -1.241310 0.269131 6.251117 -1.237998 0.283984 -8.352309 25.965314 -6.602862 -8.118260 -27.278341 -14.309695 -8.965233 -39.823712 -9.119295 -15.000639 -140.167995 -47.961916 0.000000 -0.000021 0.000006 -0.030855 3.646650 -1.990986 0.000001 -0.000024 -3.011611 -5.000142 -7.999927 0.000013 -14.118363 66.275518 16.858124 -33.295769 124.888930 47.954475 0.000001 -0.000000 0.000000 -0.027471 -3.641900 1.990864 -0.000002 0.000000 3.011599 -5.000181 7.999917 -0.000004 -28.206617 -184.744241 -1.285363 -179.999991 0.000005 -1.374995 132.001069 2.573653 -0.923106 -0.000003 -0.000000 1.657040 81.496396 6.539857 2.251628 33.835767 -7.276475 1.080405 -30.533654 -176.793832 4.486581 -0.000004 -0.000005 -1.456479 -51.475642 -4.243208 0.022111 0.000003 0.000001 -1.954340 80.114519 -6.432698 -2.753290 33.446907 6.972016 -3.266256 
52.701401 -11.836206 77.508301 5.198443 1.938733 8.127349 0.352851 -0.665183 0.132971 4.710407 -1.327772 0.276394 6.355673 -1.324362 0.292429 -8.783486 26.056314 -6.546154 -7.988721 -27.221864 -14.368573 -8.999312 -39.577002 -9.133180 -15.217110 -140.495939 -48.431304 0.000000 -0.000020 0.000004 -0.030856 3.646650 -1.990988 0.000001 -0.000024 -3.011609 -5.000142 -7.999927 0.000008 -14.176467 66.413126 16.929520 -33.600050 124.980045 48.279363 0.000001 0.000000 -0.000000 -0.027467 -3.641920 1.990864 -0.000002 0.000000 3.011600 -5.000181 7.999917 -0.000004 -28.667731 -184.904832 -1.234351 -179.999991 0.000005 -1.379994 131.462755 2.531453 -0.943275 -0.000003 0.000000 1.672020 81.579390 6.553729 2.189583 33.939152 -7.277544 1.075418 -31.132555 -176.801728 4.524141 -0.000006 -0.000004 -1.466269 -52.200779 -4.336588 -0.016192 0.000002 0.000001 -1.979409 80.083797 -6.432527 -2.756516 33.635680 6.955452 -3.330230 
52.973202 -11.624805 77.363297 5.207649 2.072840 8.187688 0.415878 -0.703565 0.135948 4.836666 -1.404283 0.283536 6.481984 -1.400782 0.300594 -9.232303 26.057416 -6.502268 -7.842830 -27.102814 -14.412287 -9.020775 -39.464082 -9.144747 -15.511612 -140.723412 -48.864396 0.000000 -0.000020 -0.000000 -0.030856 3.646650 -1.990992 0.000001 -0.000024 -3.011609 -5.000142 -7.999928 0.000017 -14.181821 66.514172 16.939417 -33.905489 125.083549 48.614636 0.000001 -0.000000 0.000000 -0.027463 -3.641929 1.990865 -0.000002 0.000000 3.011601 -5.000181 7.999917 -0.000004 -29.084342 -185.046477 -1.164642 -179.999991 0.000005 -1.384993 130.954889 2.470507 -0.969703 -0.000001 -0.000000 1.681960 81.602674 6.572201 2.113506 34.078372 -7.277456 1.079356 -31.678574 -176.803203 4.567671 -0.000003 -0.000004 -1.475110 -52.891209 -4.431303 -0.055679 0.000002 0.000001 -1.997560 79.978544 -6.434220 -2.757024 33.888103 6.935179 -3.399264 
